<mxfile host="app.diagrams.net" modified="2023-05-18T18:01:01.919Z" agent="Mozilla/5.0 (Windows NT 10.0; Win64; x64) AppleWebKit/537.36 (KHTML, like Gecko) Chrome/113.0.0.0 Safari/537.36" etag="9wTiC4YDMYzW7mBoUkO2" version="21.3.0" type="device">
  <diagram id="prtHgNgQTEPvFCAcTncT" name="Page-1">
    <mxGraphModel dx="956" dy="504" grid="1" gridSize="10" guides="1" tooltips="1" connect="1" arrows="1" fold="1" page="1" pageScale="1" pageWidth="1654" pageHeight="1169" math="0" shadow="0">
      <root>
        <mxCell id="0" />
        <mxCell id="1" parent="0" />
        <mxCell id="ELqvewZk5WmmUQiY317i-7" style="edgeStyle=orthogonalEdgeStyle;rounded=0;orthogonalLoop=1;jettySize=auto;html=1;exitX=0;exitY=0.5;exitDx=0;exitDy=0;entryX=1;entryY=0.5;entryDx=0;entryDy=0;strokeWidth=0.75;" edge="1" parent="1" source="ELqvewZk5WmmUQiY317i-3" target="ELqvewZk5WmmUQiY317i-4">
          <mxGeometry relative="1" as="geometry" />
        </mxCell>
        <mxCell id="ELqvewZk5WmmUQiY317i-3" value="" style="whiteSpace=wrap;html=1;aspect=fixed;" vertex="1" parent="1">
          <mxGeometry x="960" y="160" width="280" height="280" as="geometry" />
        </mxCell>
        <mxCell id="ELqvewZk5WmmUQiY317i-9" style="edgeStyle=orthogonalEdgeStyle;rounded=0;orthogonalLoop=1;jettySize=auto;html=1;exitX=0.5;exitY=1;exitDx=0;exitDy=0;entryX=0.5;entryY=0;entryDx=0;entryDy=0;entryPerimeter=0;" edge="1" parent="1" source="ELqvewZk5WmmUQiY317i-4" target="ELqvewZk5WmmUQiY317i-8">
          <mxGeometry relative="1" as="geometry" />
        </mxCell>
        <mxCell id="ELqvewZk5WmmUQiY317i-4" value="" style="whiteSpace=wrap;html=1;aspect=fixed;" vertex="1" parent="1">
          <mxGeometry x="260" y="50" width="500" height="500" as="geometry" />
        </mxCell>
        <mxCell id="ELqvewZk5WmmUQiY317i-8" value="" style="shape=cylinder3;whiteSpace=wrap;html=1;boundedLbl=1;backgroundOutline=1;size=15;" vertex="1" parent="1">
          <mxGeometry x="352.5" y="640" width="315" height="280" as="geometry" />
        </mxCell>
        <mxCell id="ELqvewZk5WmmUQiY317i-10" value="TCP" style="text;html=1;align=center;verticalAlign=middle;resizable=0;points=[];autosize=1;strokeColor=none;fillColor=none;" vertex="1" parent="1">
          <mxGeometry x="505" y="580" width="50" height="30" as="geometry" />
        </mxCell>
        <mxCell id="ELqvewZk5WmmUQiY317i-11" value="Модуль маршрутизации" style="rounded=1;whiteSpace=wrap;html=1;" vertex="1" parent="1">
          <mxGeometry x="980" y="280" width="100" height="40" as="geometry" />
        </mxCell>
        <mxCell id="ELqvewZk5WmmUQiY317i-12" value="&lt;font style=&quot;font-size: 14px;&quot; face=&quot;Times New Roman&quot;&gt;Подсистема отображения&lt;/font&gt;" style="text;html=1;strokeColor=none;fillColor=none;align=center;verticalAlign=middle;whiteSpace=wrap;rounded=0;" vertex="1" parent="1">
          <mxGeometry x="1070" y="170" width="160" height="30" as="geometry" />
        </mxCell>
        <mxCell id="ELqvewZk5WmmUQiY317i-15" value="Модуль доступа к данным" style="rounded=1;whiteSpace=wrap;html=1;" vertex="1" parent="1">
          <mxGeometry x="980" y="200" width="100" height="40" as="geometry" />
        </mxCell>
        <mxCell id="ELqvewZk5WmmUQiY317i-16" value="Модуль отображения" style="rounded=1;whiteSpace=wrap;html=1;" vertex="1" parent="1">
          <mxGeometry x="1100" y="280" width="100" height="40" as="geometry" />
        </mxCell>
        <mxCell id="ELqvewZk5WmmUQiY317i-17" value="Модуль отправки запросов" style="rounded=1;whiteSpace=wrap;html=1;" vertex="1" parent="1">
          <mxGeometry x="980" y="380" width="100" height="40" as="geometry" />
        </mxCell>
      </root>
    </mxGraphModel>
  </diagram>
</mxfile>
